<svg xmlns="http://www.w3.org/2000/svg" xmlns:xlink="http://www.w3.org/1999/xlink" viewBox="0 0 1800 210"><defs><style>.cls-1{fill:none;stroke:#666;stroke-miterlimit:10;}.cls-2{fill:#006c66;}.cls-3{fill:url(#linear-gradient);}.cls-4{fill:#4daf9a;}.cls-5{fill:#3fa08d;}.cls-6{fill:#279080;}.cls-7{fill:#008170;}.cls-8{fill:#0c7a6b;}.cls-9{fill:#207263;}.cls-10{fill:url(#linear-gradient-2);}.cls-11{fill:url(#linear-gradient-3);}.cls-12{fill:#30685c;}.cls-13{fill:url(#linear-gradient-4);}.cls-14{fill:#116656;}</style><linearGradient id="linear-gradient" x1="525.3" y1="96.87" x2="595.41" y2="96.87" gradientUnits="userSpaceOnUse"><stop offset="0" stop-color="#4daf9a"/><stop offset="0.6" stop-color="#4fb09b"/><stop offset="0.82" stop-color="#56b49f"/><stop offset="0.98" stop-color="#61bba6"/><stop offset="1" stop-color="#64bda7"/></linearGradient><linearGradient id="linear-gradient-2" x1="458.51" y1="143.35" x2="595.41" y2="143.35" gradientUnits="userSpaceOnUse"><stop offset="0.05" stop-color="#2f5e55"/><stop offset="0.12" stop-color="#30685c"/><stop offset="0.25" stop-color="#207263"/><stop offset="0.39" stop-color="#0c7a6b"/><stop offset="0.52" stop-color="#008170"/><stop offset="0.73" stop-color="#3fa08d"/><stop offset="1" stop-color="#64bda7"/></linearGradient><linearGradient id="linear-gradient-3" x1="325" y1="99.64" x2="366.78" y2="99.64" gradientUnits="userSpaceOnUse"><stop offset="0" stop-color="#2f5e55"/><stop offset="1" stop-color="#207263"/></linearGradient><linearGradient id="linear-gradient-4" x1="341.01" y1="110.04" x2="456.52" y2="183.4" gradientUnits="userSpaceOnUse"><stop offset="0" stop-color="#30685c"/><stop offset="1" stop-color="#2f5e55"/></linearGradient></defs><title>fhi-desktop-de</title><g id="FHI-Berlin"><g id="Minerva"><line class="cls-1" x1="270.1" y1="2" x2="270.1" y2="209"/><path class="cls-2" d="M105,0A105,105,0,1,0,210,105,105.1,105.1,0,0,0,105,0Zm0,207.1A102.1,102.1,0,1,1,207.1,105,102.2,102.2,0,0,1,105,207.1Z"/><path class="cls-2" d="M166.6,97c-1.4-3.1-.5-5.1-.9-7.3s-2.7-7-4.3-10.8c-.7-1.7,3.8-1.3.4-7.6,0-.2,4.7-2,0-5.5a26.4,26.4,0,0,1-6-6.7,1,1,0,0,1,0-1.3c2.7-2.4,2.8-5.8-.1-7.5s-4.5,0-6.7,1.4c-.7.5-1.1.8-1.9.5L145.3,51c2.7-2.6,3.3-5.2,3.1-5.6s-4.6-1.3-10.2,1l-.4-.3c2.3-3.9,1-6.7.9-6.9h-.1A81,81,0,0,1,151,25.9h.1c.2-.3.3-.6-.2-.9l-1-.6A92.4,92.4,0,0,0,12.7,105c0,29.5,15,57.9,39.4,75.6a13.5,13.5,0,0,0,2.8,1.6A1.1,1.1,0,0,0,56,182l.3-.5a1,1,0,0,0,.3-.8c0-.7-.9-1.3-2.1-3a27.7,27.7,0,0,1-4.7-15.1,22.1,22.1,0,0,1,4.5-13.7c3.7,3.9,11.7,10.9,11.5,17.4s-6.9,6.8-5.4,12.2c.9,3.4,3.4,2,3.9,4.6.7,4.4,6.7,7.3,9.3,6.9.7-.1,1.2.4,2.4,1.7s6.2,1.6,8.2,1.2,4.1,1.4,8,.9,6.1-.9,8.2-.9,22.5-.3,36,1.8c2.4.4,3.1-.7,2.1-2.5-4.9-8.6-5.6-15.8-2.8-25,5,.4,12.2,1.7,21.6-4a11,11,0,0,0,5.1-9.5c-.1-2.1-1-4.7-.5-6.7s1.3-2.7,2.1-3.2c3.6-2.6,1-4.6.4-4.8a3.4,3.4,0,0,0,1.1-4.6c-.7-.7-2.7-6.2-.4-7.3s5.3-1.8,8.1-3.1a4.5,4.5,0,0,0,2.4-6C174.2,114.4,166.8,97.4,166.6,97ZM64.7,179.1c-.7.2-2.9.3-2.4-2.7s2.3-2.6,3.3-1.6S64.9,177.6,64.7,179.1Zm87-125.9c1.2-.8,2.5-1.1,3.3-.4,2.6,2.6-2.9,4.1-1.8,6.1a30.7,30.7,0,0,0,7.5,8.4c1.2,1,1.4,3.1-3.3,4.1s-23.6,5.9-33.6,16.5c-12.5,13.2-20.4,30.3-21.5,28s-3.6-2.8-3.2-3.5C117,81.6,145.1,57.3,151.7,53.2Zm8.2,21.7c-1,2.9-9.1,5.5-8.7,3.5s0-2.2.6-2.3,3.5-1.1,7.5-2.1C159.7,73.9,160.2,74.1,159.9,74.9Zm-20.6,5.3c-.2-1.2,8.5-4.1,8.8-3.3s-1.8,6-4.7,7-4.7.9-4.6.4A11,11,0,0,0,139.3,80.2ZM119,125.8c-4,2.5-6.2-2.2-6.8-3.1a3.7,3.7,0,0,1-.5-3.1c.3-1.4.5-3.3-.4-9.3-.4-2.7,5-9.2,6.3-10.4s3.1.6,3.2,2.6c.3,3.6-1.8,5.6-3.9,7.2s-3.1,4.4-2.6,5.1a1.5,1.5,0,0,0,1.9-.9c1.5-3.3,6-4.9,6.7-6.7s.3-4.4.2-5.6.9-1.2,1.6-1.1,1.4,1.4,1.8,2.7c2.9,7.5-4.3,12-5.5,13.8S122.1,123.9,119,125.8Zm6.1-29.1c-2.2,1.5-5.3-.5-4.7-1.4a43.7,43.7,0,0,1,11.5-11c3.4-2.1,3.8-2.3,4-1.1a10.6,10.6,0,0,1-2.6,7.5c-2.3,2.5-4.6,2.3-5.8,2.6S126.7,95.6,125.1,96.7Zm-19.3,25.6c-1-.2-1.4-2.1-1.2-2.9s3.1-5.2,4-6.4a.5.5,0,0,1,.8.3C110,117.4,109.4,123.1,105.8,122.3ZM138,48.2a17.7,17.7,0,0,1,7.5-1.6c.8.1-1.9,4.8-6.6,6.8s-8.5,2.5-8.9,2.3S134.1,49.9,138,48.2ZM54.7,126.5c-1.5-1.7-2.8-2.6-2.9-2.5a22.4,22.4,0,0,0-3.6,8.9A65.4,65.4,0,0,1,40.7,105C39.3,69.6,69,41.1,105.2,41.2a56.8,56.8,0,0,1,22.4,4.6,31.3,31.3,0,0,0-3.7,6.6c0-1.9-.5-3.4-.4-4.6s-5.1.9-9.7,8.3a19.9,19.9,0,0,0-2.2,5.3c-.1-2.8-.7-4.9-.9-4.9a16.1,16.1,0,0,0-8.5,8.8,22.4,22.4,0,0,0-1.1,3.4c-.2-1.9-.7-3.2-.9-3.2s-5.9,2.3-8.6,8.9A15.4,15.4,0,0,0,90.5,79c-.5-2.3-1.4-3.7-1.7-3.4-1.9,2.4-5.7,3.5-7.6,9.6a13.2,13.2,0,0,0-.7,4.2c-.8-2-2-3.2-2.3-3.2s-6.1,5.5-7,10.9a15.8,15.8,0,0,0,.2,5.8c-1.1-1.8-2.5-3-3.1-4.8-.9.5-5.7,5-5.8,10.7a19.7,19.7,0,0,0,.7,6.1c-1.6-2.9-3.8-4.2-4.1-4.1s-4,4.1-4.8,11.1A11.8,11.8,0,0,0,54.7,126.5Zm74.1-79.7c2.8-3.4,7.6-6.1,8.2-5.8s-.8,5.6-3.9,8.6-8.1,6.2-8.6,6.1S126.2,49.8,128.8,46.8Zm-9.3,13a21,21,0,0,0-5.6,6.4c-.5.9-1.9-5,1.7-10.6,2.2-3.5,6.6-6.6,6.5-6.2S124.2,56,119.5,59.8Zm-10.1,7.5c-3.4,5.1-3.6,3.3-7.3,8.3-.2.2-.2-6.5,1.1-9.4,2.1-4.7,5.7-7.4,6.2-7.5S111.3,64.5,109.4,67.3ZM98.3,77.4c-1.7,3-3.3,2.3-6.2,6.7-.3.4-1.1-3.6.7-9.1a12.6,12.6,0,0,1,5.9-6.9C99.3,68,100.4,73.8,98.3,77.4ZM88,88.1c-1.8,3.9-2.9,4-5,6.4-.3.4-1.8-3.7-.4-8.8s4-5.6,5.3-7S89.9,84,88,88.1Zm-8.4,6.6a10.3,10.3,0,0,1-.4,3c-1.3,4.3-3.9,6.2-5.3,8.1a15.7,15.7,0,0,1-1.6-5.8,15.2,15.2,0,0,1,5.2-11.2C78.3,88.8,79.6,92,79.6,94.7Zm-8.5,12.8A14.9,14.9,0,0,1,66,118.3a17.7,17.7,0,0,1-2.2-7.6c-.2-6.3,2.4-8.5,3.6-9.7C67.9,102.8,71.1,104.2,71.1,107.5ZM59,113.8c1.8.9,3.9,3.4,4.1,8.2s-3.2,8.7-4.6,9.4c-.9-3.7-2.6-4.4-2.6-8A18,18,0,0,1,59,113.8Zm7.3,12.5c4.6-2,9.6-1.7,9.8-1.5s-1.5,5.9-5.9,8.2-9.5,2.7-10,2.1S61.7,128.3,66.3,126.3Zm-.4-3.4c.3-1.5,3-6.5,7.1-8.3h0a18.4,18.4,0,0,1,9.4-1.5c.5.2-1.7,5.6-5.8,7.6S70.1,121.6,65.9,122.9Zm6.9-11.8c.2-.4,3.5-6.4,7.4-8.2a17.5,17.5,0,0,1,8.9-1.4c.3.1-1.8,5.4-6.2,7.6S72.6,111.6,72.8,111.1Zm8.9-11.9c-.3-.2,4.4-6.4,8.4-8.3a15.6,15.6,0,0,1,8.4-1c.3.3-1.9,5.5-6.5,7.5A24.2,24.2,0,0,1,81.7,99.2ZM92.4,87.4c-.2-.2,3.4-6.3,7.4-7.9s7.7-.1,8.9,0-1.3,4.5-6.6,6.4S93.1,87.7,92.4,87.4Zm12-11.4c.1-.3,4.1-5.9,8.1-7.3a16.4,16.4,0,0,1,9.2-.2c.5.2-2.8,5-7.7,6.5S104.3,76.3,104.4,76Zm12.1-9.9c-.5-.3,4.3-5.7,8.2-7.2a18,18,0,0,1,8.3-1c.3.2-2.5,4.9-7.1,6.7S117.1,66.5,116.5,66.1ZM50.2,175.3C28.6,158.1,15.6,132.1,15.6,105A89.3,89.3,0,0,1,146.4,25.8a.4.4,0,0,1,.1.7,97.3,97.3,0,0,0-10.2,11.4,73.1,73.1,0,0,0-31.3-7A74.3,74.3,0,0,0,30.9,105a72.1,72.1,0,0,0,17.9,48.2,23.1,23.1,0,0,0-1.9,9.4A25.6,25.6,0,0,0,50.2,175.3Zm.2-24.8h-.1A69.2,69.2,0,0,1,33.9,105,71.2,71.2,0,0,1,105,33.9a70.1,70.1,0,0,1,29.6,6.4,22.6,22.6,0,0,0-4.1,2.6A63.1,63.1,0,0,0,105,37.8,67.3,67.3,0,0,0,37.8,105c0,16.1,5,30.2,14.8,42C52.1,147.9,51.3,149.1,50.4,150.5Zm3.5-5.6c-1.3-1.2-4.1-4.3-4.4-8.3V136c0-4.3,1.9-8.6,2.4-9s5.3,3.3,5.4,8.7A14.4,14.4,0,0,1,53.9,144.9Zm8-7.2c3.9-1.8,9.6-1.4,9.3-1.1s-1.8,5.8-6.2,8a12.1,12.1,0,0,1-8.7,1.3C58.6,143.3,58.1,139.5,61.9,137.7Zm5.2,46.5c-.6-2.7-.4-6.3.5-7.3s4.9-1.2,5-.1-1.1,5.4.3,10.2C72.6,187.7,68.3,187.4,67.1,184.2Zm.3-11.1c-.3-2,1.6-3.9,1.6-8.2s-6.6-12.6-11.1-17.3a19.5,19.5,0,0,0,7.9-1.9c6.6-3.1,7.9-10.1,8.1-10.4a11,11,0,0,0-3.8-.4l.8-.4c6.4-3.5,8.1-11,7.8-11.1a17,17,0,0,0-4-.3l2-.7c6.8-2.7,8.7-10.3,8.5-10.6a16.1,16.1,0,0,0-3.5-.4l1.9-.8c6.2-3.1,8.4-10.1,8.1-10.3a10.5,10.5,0,0,0-3.3-.4,23.7,23.7,0,0,0,4.5-1.5c6.7-2.9,8.9-9.3,8.6-9.6a10.9,10.9,0,0,0-3-.5,34.5,34.5,0,0,0,4.4-1.3c6.6-2.2,9.2-8.5,8.8-8.6l-3.7-.8a24.5,24.5,0,0,0,6.6-1.3c7.1-2.4,9.6-6.7,9.8-8.6a6,6,0,0,0-2.3-.8,29.3,29.3,0,0,0,4.7-1.2c6.6-2.7,9.4-9.3,9.6-9.8a29.3,29.3,0,0,0,3.9-1.6l1.9-.9,1.6,1.1c1,.6,1.4.8.9,1.2C122,75,105,99.5,97.6,111.3c-.2.4-.6.3-1.3.3-7.9-.6-12.4,8.9-8.9,17.8-.4,1.8-4.2,5.3-4.5,5.5s-1,1.4.3,1.3,4.2-3.2,5.4-4.5c.4.6,2.2,2,1.3,2.8A63.6,63.6,0,0,1,76,145c-2.6,1.2,4.2,2.1,15.7-8.3.7-.6,1.5,2.4,2.5,3.7-2,6.5,2.9,19.1,2.1,23a2.8,2.8,0,0,1-2.8,2.7c-11.4.3-12.5-.3-18.3,1.4-2.7.8-2,2.6-.1,2.1s4.6-1.5,16.9-.7c3.1.1,6.5-.6,6.5-5.7s-3.6-18.4-2.4-20.3a6.9,6.9,0,0,0,3.5,1.4c-.2,4.5,7,19,3.8,27-1.2,3-6.4,2.7-15.4,1.8C72.7,171.6,67.7,174.9,67.4,173.1Zm35.1,9.9c-5.9,2-8.3-4.9-7.3-6.4s4.4,1,7.3-.9S106,181.8,102.5,183Zm-27,4.3c-.8-3.7-1.1-10,.4-11.5s4.9-.9,4.8.2c-.3,4.3-2.1,9.2,1.2,14.1C83.2,192,76.7,192.3,75.5,187.3Zm11.4,4.2c-1.6-.4-6-7.4-2.4-15.8.3-.8,5.8-.3,6.8,0s-.8,6.8,6.8,9.8C98.8,185.8,98,194.3,86.9,191.5Zm47.2-23.3c-2.5,8.8-3.8,12.3,0,21.9.5,1.3.9,2.3-.2,2.1-7.7-1.4-9.4-2.6-33.7-.6-1.7.2.6-3.4.3-5.8,2.2-.3,5.8-1.3,6.5-4.9s-2.1-7.6-1.8-8.2c3.5-6.7-.2-14.1-3.1-26.6-.3-1.2.4-1.7.9-1.1,15.6,16.9,25.5,20.2,30.9,21.8C134.4,167,134.3,167.6,134.1,168.2ZM174,122.1c-3.3,2.9-8.3,3.1-10.3,4.9s-1.5,2.5-.4,5.2,1.1,1.7-1.1,2.3-4.1,5.8-8.8,4.9c-1.8-.3-.5.8.2.9,2.6.3,3.7-.5,4.6-1.4s2.2-2.4,3.6-2.9,2.9-.5,3,.6-1.9,2.1-2.7,2.5c1,.5,3.9,1.9,1.4,3.6s-4.6-.5-4.9-.7-1.7-.2-1.3.3,5.2,1.3,4.5,2.2c-3.5,4.7-.6,7.5-1.7,12.3s-7.7,7.5-12.8,8.4c-17.4,3.1-34.3-11.6-44.2-22.8.9-2.1.8-4.8-.1-3.8s-.7,2.4-2.8,2.9c-3.9,1-5.7-5.9-6.9-7.1-4.8-4.7-6.7-11.4-3.9-17.3s9-4.7,11.4-1.1,1.7,7,3.4,8.3,4.8.2,5.4,0,1.7,4.3,8,4.1,5.9-10.7,6.9-11.6c8.6-8.4,4.2-15.9,2.6-17.6s1-3.6,1.5-3.7a13,13,0,0,0,9.4-7.7s8.4-.2,11.4-6.2c.8-1.6,3.3,1.5,8.9-2.9a.8.8,0,0,1,1.4.3c3.7,8.9,5.2,11.3,4.9,15.8s8.7,21.5,9.4,23.1S174.8,121.3,174,122.1Z"/><path class="cls-2" d="M153.8,90c-4.9.2-10.6,6.2-12.4,7s-1.3,1.5-.2,1.1,5.9-4.7,10.7-6.4,3.6,1.8,5,1.6S156.6,89.9,153.8,90Z"/><path class="cls-2" d="M154.9,94.8c-.4.1.4,2.2-1.7,2.3-4.6.3-8.3,4.7-11.1,6a12.9,12.9,0,0,1-3.8,1.4.3.3,0,0,0,.1.6c11.7,1.6,16.2,1.1,16.3.7s-.6-1.2-.4-1.7a11.3,11.3,0,0,0,.1-5.5c-.2-.8,1.8-.3,1.8-1.3S155.6,94.7,154.9,94.8Zm-1.8,9.3c-.2.9-5.5.5-8.3.2-.7,0-1.8-.1.3-1.4s4.1-2.8,7.2-3.4a.8.8,0,0,1,.8.6A10.6,10.6,0,0,1,153.1,104.1Z"/><path class="cls-2" d="M168.4,120.8c-.9,0-4.5,1.6-5.9,2.5s-4.4,2.7-4.2-.8c.1-1.3.9-4.4.9-5.3s-1-.7-1.1,0a36.9,36.9,0,0,1-.7,5.3c-.4,1.8,1.2,4,3.6,2.7s4.8-2.9,7.3-3.4C168.9,121.7,169,120.8,168.4,120.8Z"/><path class="cls-2" d="M100.5,133.6c-.7-.3-.5,1.2-1.4,1s-.2-1.3-1.8-3-2.8-1.2-4.3-3.6-.3-12,3.1-10.8,1.6,5,1,8,2.5,2.8,2.8,2.1-1.1-.9-1.4-1.9,3.5-7.6-1.8-9.4c-3.8-1.3-6.4,3.6-5.9,8.9a8,8,0,0,0,5.1,7.1c2.3.8.6,4,3.7,4C101,136,101.3,133.9,100.5,133.6Z"/><path class="cls-2" d="M131.3,33.4c.2.1.3,0,.5-.1l6.5-8.3a.5.5,0,0,0-.2-.6L137,24a.4.4,0,0,0-.5.1L130,32.4c-.2.2-.1.5.2.6Z"/><path class="cls-2" d="M119.2,30l1.1.3a.5.5,0,0,0,.5-.3l3.8-9.4a.4.4,0,0,0-.3-.6l-1.2-.2h-.3l-3.9,9.6A.4.4,0,0,0,119.2,30Z"/><path class="cls-2" d="M105.8,28.7h1.1c.2.1.4-.1.4-.3l1-10a.5.5,0,0,0-.4-.5h-1.1c-.3,0-.4.2-.5.4l-.9,10A.4.4,0,0,0,105.8,28.7Z"/><path class="cls-2" d="M92.8,29.7l1.1-.2c.2,0,.4-.2.3-.4l-1.9-9.9c0-.2-.2-.4-.4-.3H90.7c-.2.1-.4.3-.3.5l1.9,9.9C92.3,29.6,92.5,29.7,92.8,29.7Z"/><path class="cls-2" d="M79.4,32.8l.5.2,1.1-.4a.4.4,0,0,0,.3-.6l-4.6-9a.4.4,0,0,0-.5-.2l-1,.3a.4.4,0,0,0-.3.6Z"/><path class="cls-2" d="M67,38.5c.1.2.3.2.5.1l1-.6a.4.4,0,0,0,.1-.6l-6.7-7.7c-.2-.2-.4-.2-.5-.1l-1,.6c-.3.1-.3.4-.1.6Z"/><path class="cls-2" d="M55.4,46.7c.2.1.4.1.5-.1l.9-.7a.5.5,0,0,0,0-.7l-8.5-5.9h-.5l-.9.8a.5.5,0,0,0,0,.7Z"/><path class="cls-2" d="M45.4,57.1a.4.4,0,0,0,.4-.2l.8-.9c.2-.2.1-.5-.2-.6l-9.8-3.8c-.2-.1-.4-.1-.5.1l-.7.9a.4.4,0,0,0,.2.7Z"/><path class="cls-2" d="M26.8,67.8l10.5,1.5c.2,0,.4-.1.4-.3l.6-1a.4.4,0,0,0-.3-.6L27.5,65.9l-.5.2a5.4,5.4,0,0,1-.5,1.1A.4.4,0,0,0,26.8,67.8Z"/><path class="cls-2" d="M21.1,83.7l10.7-1a.3.3,0,0,0,.3-.3,7.6,7.6,0,0,0,.4-1.1.4.4,0,0,0-.4-.6l-10.8,1-.4.3-.3,1.2C20.6,83.5,20.8,83.8,21.1,83.7Z"/><path class="cls-2" d="M29.2,96.5c0-.4.1-.9.1-1.3s-.2-.5-.5-.4L18.4,98.4c-.2.1-.3.2-.3.4s-.1.8-.1,1.2a.4.4,0,0,0,.6.4l10.3-3.6A.3.3,0,0,0,29.2,96.5Z"/><path class="cls-2" d="M28.9,110.8v-1.3a.5.5,0,0,0-.7-.4l-9.4,6.3c-.2,0-.2.2-.2.4s.1.8.1,1.2a.5.5,0,0,0,.7.3l9.4-6.2C28.9,111,29,110.9,28.9,110.8Z"/><path class="cls-2" d="M31.3,125l-.3-1.3a.4.4,0,0,0-.7-.2L22.6,132c-.1.1-.2.3-.1.4s.3.8.4,1.2a.4.4,0,0,0,.7.2l7.6-8.4C31.3,125.3,31.3,125.2,31.3,125Z"/><path class="cls-2" d="M35.2,137.7,29.8,148c-.1.1,0,.3,0,.4l.7,1.2a.4.4,0,0,0,.7-.1l5.4-10.2c0-.1.1-.2,0-.4l-.6-1.2A.5.5,0,0,0,35.2,137.7Z"/><path class="cls-2" d="M42.9,149.3c-.2-.3-.7-.2-.7.1l-2.9,12c-.1.2,0,.3,0,.4l1,1a.4.4,0,0,0,.7-.1l2.8-11.9c.1-.1,0-.2,0-.3Z"/></g></g><g id="FHI"><path class="cls-3" d="M593.7,105.1h-.3L526.7,92a1.9,1.9,0,0,1-1.4-2,1.7,1.7,0,0,1,2-1.3l66.7,13a1.7,1.7,0,0,1,1.4,2A1.8,1.8,0,0,1,593.7,105.1Z"/><path class="cls-4" d="M576.8,115.2h-.6l-34.6-12.4a12.4,12.4,0,0,1-3-1.6L505.3,76.3l-1.5-.7h-1.2a1.8,1.8,0,0,1-1.5-2,1.8,1.8,0,0,1,1.9-1.4l1.2.2a8.3,8.3,0,0,1,3.2,1.3l33.2,24.8a13.9,13.9,0,0,0,2.1,1.1l34.6,12.4a1.8,1.8,0,0,1,1.1,2.2A1.7,1.7,0,0,1,576.8,115.2Z"/><path class="cls-5" d="M559.8,125.4l-.9-.3-28.8-16.9a11.8,11.8,0,0,1-2.7-2.3l-37-44.4a2.2,2.2,0,0,0-1.3-.6l-3.9-.4a1.7,1.7,0,1,1,.3-3.3l3.9.3a5.6,5.6,0,0,1,3.6,1.9l37,44.4a13,13,0,0,0,1.8,1.5l28.9,16.9a1.8,1.8,0,0,1,.6,2.3A1.6,1.6,0,0,1,559.8,125.4Z"/><path class="cls-6" d="M542.9,135.5a1.6,1.6,0,0,1-1.2-.4l-23.2-21.5a17.8,17.8,0,0,1-2.2-2.6L475.7,46.7a1.6,1.6,0,0,0-.9-.6l-5.4-.2a1.6,1.6,0,0,1-1.6-1.7,1.7,1.7,0,0,1,1.8-1.7l5.3.2a5,5,0,0,1,3.6,2.1l40.7,64.4a10,10,0,0,0,1.6,1.9L544,132.6a1.7,1.7,0,0,1,.1,2.4A1.8,1.8,0,0,1,542.9,135.5Z"/><path class="cls-7" d="M525.9,145.7a1.9,1.9,0,0,1-1.4-.7l-17.6-26.1a24,24,0,0,1-1.6-2.7L461.1,31.8a1,1,0,0,0-.7-.4H450.1a5.5,5.5,0,0,0-1.7.5L422.8,50.4a4.8,4.8,0,0,0-1.2,1.6l-4.4,9.8a1.8,1.8,0,0,1-2.3.8,1.6,1.6,0,0,1-.8-2.2l4.4-9.8a7.3,7.3,0,0,1,2.3-2.9l25.6-18.5a7.1,7.1,0,0,1,3.7-1.2h10.3a4.3,4.3,0,0,1,3.7,2.2l44.2,84.4a18.8,18.8,0,0,0,1.4,2.4l17.6,26.1a1.7,1.7,0,0,1-.4,2.3A1.9,1.9,0,0,1,525.9,145.7Z"/><path class="cls-8" d="M509.5,155.5a1.7,1.7,0,0,1-1.4-.7l-14.8-20.4a29.3,29.3,0,0,1-1.8-2.6L454.3,66.4a2.3,2.3,0,0,0-1.2-1l-21.4-7.6H430l-26.4,9.3a3.5,3.5,0,0,0-1.3,1.1l-9.9,14.7a1.6,1.6,0,0,1-2.3.5,1.7,1.7,0,0,1-.5-2.3l9.8-14.8a7.3,7.3,0,0,1,3.1-2.4l26.4-9.3a6.5,6.5,0,0,1,3.9,0l21.4,7.6a5.7,5.7,0,0,1,3,2.5l37.3,65.4a18.2,18.2,0,0,0,1.5,2.3l14.9,20.4a1.9,1.9,0,0,1-.4,2.4A1.9,1.9,0,0,1,509.5,155.5Z"/><path class="cls-9" d="M493.1,165.3a2,2,0,0,1-1.4-.6l-12-14.7a24.8,24.8,0,0,1-1.9-2.6L447.6,101a3.7,3.7,0,0,0-1.5-1.3L413.7,83.9a7.1,7.1,0,0,0-2.1-.4l-27.4.3a4.9,4.9,0,0,0-1.6.5L366.1,97.2a1.7,1.7,0,0,1-2.4-.3,1.7,1.7,0,0,1,.3-2.3l16.5-12.9a6.4,6.4,0,0,1,3.7-1.3l27.4-.3a7.8,7.8,0,0,1,3.6.8l32.4,15.7a8.4,8.4,0,0,1,2.8,2.5l30.3,46.5,1.6,2.2,12.1,14.8a1.5,1.5,0,0,1-.3,2.3A1.4,1.4,0,0,1,493.1,165.3Z"/><path class="cls-10" d="M460.2,185a1.6,1.6,0,0,1-1.4-.8,1.8,1.8,0,0,1,.5-2.4l133.5-79.9a1.9,1.9,0,0,1,2.4.6,1.7,1.7,0,0,1-.6,2.3l-133.5,80Z"/><path class="cls-11" d="M326.7,105.1a1.8,1.8,0,0,1-1.7-1.4,1.9,1.9,0,0,1,1.4-2l38.4-7.5a1.7,1.7,0,0,1,.6,3.3L327,105.1Z"/><path class="cls-12" d="M476.6,175.2a2.1,2.1,0,0,1-1.2-.5l-10.2-10.2L441,135.6a6.5,6.5,0,0,0-1.8-1.5L395.8,110l-2.4-1-19.9-5.8a6.1,6.1,0,0,0-2.3-.3l-44.4,2.2a1.7,1.7,0,1,1-.2-3.4L371,99.5a13.9,13.9,0,0,1,3.5.4l19.9,5.9a19.8,19.8,0,0,1,3.1,1.2l43.4,24.2a11.3,11.3,0,0,1,2.7,2.2l24.1,28.8,10.1,10.1a1.6,1.6,0,0,1,0,2.4A1.7,1.7,0,0,1,476.6,175.2Z"/><path class="cls-13" d="M460.2,185l-.9-.2-133.5-80a1.7,1.7,0,0,1-.6-2.3,1.9,1.9,0,0,1,2.4-.6l133.5,79.9a1.7,1.7,0,0,1-.9,3.2Z"/><path d="M637.4,63.1a1.6,1.6,0,0,1,1.8-1.7h21.9a1.6,1.6,0,0,1,1.8,1.7c0,1-.6,1.6-1.8,1.6H641.3a.4.4,0,0,0-.4.4V80.5c0,.2.2.3.4.3h16.9a1.7,1.7,0,1,1,0,3.4H641.3c-.2,0-.4.1-.4.3v17.2a1.7,1.7,0,0,1-1.7,1.9,1.8,1.8,0,0,1-1.8-1.9Z"/><path d="M701.6,73c0-5.3-3.2-8.3-9.3-8.3H681.5c-.2,0-.3.2-.3.4V80.9c0,.2.1.4.3.4h10.8c6.1,0,9.3-3,9.3-8.3m.1,29.5L693,84.6H681.5c-.2,0-.3.1-.3.4v16.7a1.8,1.8,0,1,1-3.6,0V63.1a1.6,1.6,0,0,1,1.8-1.7h13c7.8,0,12.7,4.4,12.7,11.6s-3.3,9.9-8.6,11.2l8.4,16.9a2.4,2.4,0,0,1,.2.8,1.7,1.7,0,0,1-1.8,1.7,1.8,1.8,0,0,1-1.6-1.1"/><path d="M721.8,63.1c0-1.3.7-1.9,1.7-1.9a1.7,1.7,0,0,1,1.8,1.9v38.6a1.7,1.7,0,0,1-1.8,1.9,1.7,1.7,0,0,1-1.7-1.9Z"/><path d="M752.1,101.7V65.1c0-.2-.1-.4-.3-.4H740.7c-1.2,0-1.8-.6-1.8-1.6a1.6,1.6,0,0,1,1.8-1.7h26.5a1.6,1.6,0,0,1,1.7,1.7,1.5,1.5,0,0,1-1.7,1.6H756c-.2,0-.3.2-.3.4v36.6a1.8,1.8,0,1,1-3.6,0"/><path d="M781.1,103.3a1.6,1.6,0,0,1-1.8-1.7,4.2,4.2,0,0,1,.8-2.3l22-34.5H781.9c-1.2,0-1.8-.6-1.8-1.6a1.6,1.6,0,0,1,1.8-1.7h22.7a1.7,1.7,0,0,1,1.9,1.7,4,4,0,0,1-.9,2.4L783.7,100h21a1.6,1.6,0,0,1,1.8,1.7c0,1-.6,1.6-1.8,1.6Z"/><path d="M818.6,82a1.5,1.5,0,0,1,1.7-1.6h14.1a1.5,1.5,0,0,1,1.7,1.6c0,.9-.6,1.5-1.7,1.5H820.3c-1.1,0-1.7-.6-1.7-1.5"/><path d="M850.9,63.1c0-1.3.7-1.9,1.7-1.9a1.7,1.7,0,0,1,1.8,1.9V80c0,.3.1.4.4.4h20.6c.3,0,.5-.1.5-.4V63.1c0-1.3.7-1.9,1.7-1.9a1.7,1.7,0,0,1,1.8,1.9v38.6a1.7,1.7,0,0,1-1.8,1.9,1.7,1.7,0,0,1-1.7-1.9V84.1a.5.5,0,0,0-.5-.4H854.8a.4.4,0,0,0-.4.4v17.6a1.8,1.8,0,0,1-1.8,1.9,1.7,1.7,0,0,1-1.7-1.9Z"/><path d="M917.8,89l-7.9-21.9h-.2L901.8,89Zm-24,12.3L907.6,63a2.4,2.4,0,0,1,2.3-1.8,2.2,2.2,0,0,1,2.2,1.8l13.7,38.3a1.5,1.5,0,0,1,.1.7,1.6,1.6,0,0,1-1.7,1.6,1.7,1.7,0,0,1-1.7-1.2l-3.6-10H900.7l-3.6,10a1.7,1.7,0,0,1-1.8,1.2,1.5,1.5,0,0,1-1.6-1.6,1.5,1.5,0,0,1,.1-.7"/><path d="M944.1,100h11c6.1,0,9.2-3.2,9.2-8.1s-3.1-8.2-9.2-8.2h-11c-.3,0-.4.1-.4.3V99.6c0,.3.1.4.4.4m10.8-19.7c5.7,0,8.7-3.2,8.7-7.8s-3.1-7.8-8.8-7.8H944.1a.4.4,0,0,0-.4.4V80c0,.2.1.3.4.3ZM940.2,63.1a1.6,1.6,0,0,1,1.7-1.7h13c8,0,12.2,4.3,12.2,10.9s-2.6,8.2-6.4,9.4h0c3.1.6,7.1,3.9,7.1,10.1s-4.6,11.4-12.8,11.4H941.9a1.6,1.6,0,0,1-1.7-1.6V63.1Z"/><path d="M983.5,63.1a1.6,1.6,0,0,1,1.7-1.7h22a1.6,1.6,0,0,1,1.8,1.7c0,1-.6,1.6-1.8,1.6H987.4a.4.4,0,0,0-.4.4V80c0,.3.1.4.4.4h16.9a1.6,1.6,0,0,1,1.8,1.7c0,1-.6,1.6-1.8,1.6H987.4a.4.4,0,0,0-.4.4V99.6c0,.3.1.4.4.4h19.8a1.6,1.6,0,0,1,1.8,1.7c0,1-.6,1.6-1.8,1.6h-22a1.6,1.6,0,0,1-1.7-1.6Z"/><path d="M1048,73c0-5.3-3.2-8.3-9.3-8.3h-10.8a.4.4,0,0,0-.4.4V80.9a.4.4,0,0,0,.4.4h10.8c6.1,0,9.3-3,9.3-8.3m.1,29.5-8.7-17.9h-11.5a.4.4,0,0,0-.4.4v16.7a1.7,1.7,0,0,1-1.8,1.9,1.7,1.7,0,0,1-1.7-1.9V63.1a1.6,1.6,0,0,1,1.7-1.7h13.1c7.8,0,12.7,4.4,12.7,11.6s-3.3,9.9-8.6,11.2l8.4,16.9a2.2,2.2,0,0,1,.1.8,1.6,1.6,0,0,1-1.7,1.7,1.9,1.9,0,0,1-1.6-1.1"/><path d="M1063.7,82a1.5,1.5,0,0,1,1.7-1.6h14.1a1.5,1.5,0,0,1,1.7,1.6c0,.9-.6,1.5-1.7,1.5h-14.1c-1.1,0-1.7-.6-1.7-1.5"/><path d="M1096,63.1c0-1.3.7-1.9,1.7-1.9a1.7,1.7,0,0,1,1.8,1.9v38.6a1.7,1.7,0,0,1-1.8,1.9,1.7,1.7,0,0,1-1.7-1.9Z"/><path d="M1117.3,63.4a2,2,0,0,1,2.2-2.2c1.1,0,1.8.6,2.5,1.9l20.2,33.4h.2V63.1c0-1.3.7-1.9,1.7-1.9a1.7,1.7,0,0,1,1.8,1.9v38.3a2,2,0,0,1-2.2,2.2c-1.1,0-1.7-.6-2.5-1.9l-20.1-33.5h-.3v33.5a1.7,1.7,0,0,1-1.8,1.9,1.7,1.7,0,0,1-1.7-1.9Z"/><path d="M1162.8,99.9a1.9,1.9,0,0,1-1-1.7,1.8,1.8,0,0,1,1.8-1.7,2.5,2.5,0,0,1,1.3.4,20.2,20.2,0,0,0,11.2,3.7c6.8,0,10.9-3.4,10.9-8.5s-2.4-7.2-10.1-8.2l-2-.2c-8.2-1.1-12-5-12-11.1s5.2-11.8,13.2-11.8a21,21,0,0,1,10.8,2.8,2,2,0,0,1,1.1,1.7,1.6,1.6,0,0,1-1.6,1.7,2.8,2.8,0,0,1-1.3-.4,19.2,19.2,0,0,0-9.2-2.5c-6.1,0-9.5,3.4-9.5,8.2s2.7,7.1,9.9,8l1.9.2c8.4,1.1,12.3,5,12.3,11.3s-5,12.2-14.8,12.2a23.5,23.5,0,0,1-12.9-4.1"/><path d="M1214.5,101.7V65.1a.4.4,0,0,0-.4-.4H1203c-1.2,0-1.8-.6-1.8-1.6a1.6,1.6,0,0,1,1.8-1.7h26.5a1.6,1.6,0,0,1,1.8,1.7c0,1-.6,1.6-1.8,1.6h-11.1a.4.4,0,0,0-.4.4v36.6a1.7,1.7,0,0,1-1.8,1.9,1.7,1.7,0,0,1-1.7-1.9"/><path d="M1245.3,63.1c0-1.3.7-1.9,1.7-1.9a1.7,1.7,0,0,1,1.8,1.9v38.6a1.7,1.7,0,0,1-1.8,1.9,1.7,1.7,0,0,1-1.7-1.9Z"/><path d="M1276.3,101.7V65.1c0-.2-.1-.4-.3-.4h-11.2a1.5,1.5,0,0,1-1.7-1.6,1.6,1.6,0,0,1,1.7-1.7h26.6a1.6,1.6,0,0,1,1.7,1.7,1.5,1.5,0,0,1-1.7,1.6h-11.2c-.2,0-.3.2-.3.4v36.6a1.8,1.8,0,1,1-3.6,0"/><path d="M1304.9,88.8V63.1a1.7,1.7,0,0,1,1.8-1.9c1,0,1.7.6,1.7,1.9V88.9c0,7.9,4,11.7,10.7,11.7s10.8-3.8,10.8-11.7V63.1c0-1.3.7-1.9,1.7-1.9a1.7,1.7,0,0,1,1.8,1.9V88.8c0,10.3-5.6,15.2-14.3,15.2s-14.2-4.9-14.2-15.2"/><path d="M1358.2,101.7V65.1a.4.4,0,0,0-.4-.4h-11.1c-1.2,0-1.8-.6-1.8-1.6a1.6,1.6,0,0,1,1.8-1.7h26.5a1.6,1.6,0,0,1,1.8,1.7c0,1-.6,1.6-1.8,1.6h-11.1a.4.4,0,0,0-.4.4v36.6a1.7,1.7,0,0,1-1.8,1.9,1.7,1.7,0,0,1-1.7-1.9"/><path class="cls-14" d="M637.4,137.1a1.8,1.8,0,0,1,1.9-2c1,0,1.5.6,2,1.8l6.9,15.6h.1l6.8-15.6c.6-1.2,1.1-1.8,2.1-1.8a1.8,1.8,0,0,1,1.8,2v21.7a1.5,1.5,0,0,1-1.5,1.7c-1,0-1.5-.7-1.5-1.7V142.5h-.2l-5.7,12.7c-.6,1.3-1.1,1.6-1.9,1.6s-1.3-.3-1.9-1.6l-5.7-12.7h-.1v16.3a1.5,1.5,0,0,1-1.5,1.7,1.6,1.6,0,0,1-1.6-1.7V137.1Z"/><path class="cls-14" d="M688.9,151.5l-4-11.4h-.1l-4,11.4ZM675,158.2l7.7-21.2c.4-1.2,1.1-1.9,2.2-1.9s1.8.7,2.2,1.9l7.5,21.2a1.9,1.9,0,0,1,.2.7,1.5,1.5,0,0,1-1.6,1.6,1.6,1.6,0,0,1-1.5-1.2l-1.7-4.8H679.7l-1.7,4.8a1.6,1.6,0,0,1-1.6,1.2,1.5,1.5,0,0,1-1.5-1.6c0-.2.1-.5.1-.7"/><path class="cls-14" d="M718.3,150.2h0l-5.9,9.4a1.5,1.5,0,0,1-1.4.9,1.6,1.6,0,0,1-1.6-1.6,2.2,2.2,0,0,1,.3-1l6.7-10.6-6-9.6a2.3,2.3,0,0,1-.3-1.1,1.6,1.6,0,0,1,1.6-1.5,1.6,1.6,0,0,1,1.4.9l5.2,8.3h0l5.2-8.3a1.6,1.6,0,0,1,1.4-.9,1.6,1.6,0,0,1,1.6,1.5,2.3,2.3,0,0,1-.3,1.1l-6.1,9.6,6.7,10.6a2.2,2.2,0,0,1,.3,1,1.6,1.6,0,0,1-1.6,1.6,1.6,1.6,0,0,1-1.4-.9Z"/><path class="cls-14" d="M739.9,147.6a1.5,1.5,0,0,1,1.5-1.5h7.9a1.5,1.5,0,0,1,1.6,1.5,1.4,1.4,0,0,1-1.6,1.4h-7.9a1.4,1.4,0,0,1-1.5-1.4"/><path class="cls-14" d="M781,142.8c0-2.7-1.8-4.4-4.9-4.4h-5.6c-.1,0-.2,0-.2.2V147l.2.2h5.6c3.1,0,4.9-1.7,4.9-4.4m-14-6a1.4,1.4,0,0,1,1.5-1.5h7.7c5,0,8,3,8,7.5s-3,7.4-8,7.4h-5.7a.2.2,0,0,0-.2.2v8.3a1.6,1.6,0,0,1-1.6,1.8,1.7,1.7,0,0,1-1.7-1.8V136.8Z"/><path class="cls-14" d="M800.4,136.9a1.6,1.6,0,0,1,1.6-1.8,1.7,1.7,0,0,1,1.7,1.8V157c0,.2,0,.2.2.2h10.8a1.5,1.5,0,0,1,1.6,1.5,1.5,1.5,0,0,1-1.6,1.6H802a1.6,1.6,0,0,1-1.6-1.7Z"/><path class="cls-14" d="M843.9,151.5l-4-11.4h-.1l-4.1,11.4ZM830,158.2l7.7-21.2c.4-1.2,1-1.9,2.1-1.9s1.8.7,2.2,1.9l7.6,21.2a1.9,1.9,0,0,1,.2.7,1.5,1.5,0,0,1-1.6,1.6,1.8,1.8,0,0,1-1.6-1.2l-1.7-4.8H834.7l-1.7,4.8a1.7,1.7,0,0,1-1.6,1.2,1.5,1.5,0,0,1-1.5-1.6,1.7,1.7,0,0,1,.1-.7"/><path class="cls-14" d="M865.6,137.1a1.8,1.8,0,0,1,1.8-2c1,0,1.6.7,2.2,1.7l10.7,17.6h.2V136.8a1.5,1.5,0,1,1,3,0v21.7c0,1.2-.6,2-1.8,2s-1.6-.7-2.2-1.7l-10.7-17.5h-.1v17.5a1.5,1.5,0,0,1-1.5,1.7,1.6,1.6,0,0,1-1.6-1.7Z"/><path class="cls-14" d="M900.4,147.8c0-3.6.1-5.2.7-7,1.2-3.8,4.1-5.9,8.3-5.9a8.4,8.4,0,0,1,7.4,4.1,3.8,3.8,0,0,1,.3,1,1.5,1.5,0,0,1-1.5,1.5,1.6,1.6,0,0,1-1.5-.9,5.3,5.3,0,0,0-4.7-2.7,5.1,5.1,0,0,0-5.1,3.9,18.8,18.8,0,0,0-.6,6,18.8,18.8,0,0,0,.6,6,5,5,0,0,0,5.1,3.8,5.4,5.4,0,0,0,4.7-2.6,1.6,1.6,0,0,1,1.5-.9,1.5,1.5,0,0,1,1.5,1.5,3.8,3.8,0,0,1-.3,1,8.4,8.4,0,0,1-7.4,4.1c-4.2,0-7.1-2.1-8.3-5.9-.6-1.8-.7-3.5-.7-7"/><path class="cls-14" d="M933.6,136.9a1.6,1.6,0,1,1,3.2,0v11.9l10.7-13a1.7,1.7,0,0,1,1.4-.7,1.5,1.5,0,0,1,1.4,1.5,1.8,1.8,0,0,1-.4,1l-6.4,7.6,7.3,12.7a1.9,1.9,0,0,1,.3,1,1.5,1.5,0,0,1-1.5,1.6,1.9,1.9,0,0,1-1.6-1l-6.7-11.8-4.5,5.4v5.6a1.6,1.6,0,1,1-3.2,0Z"/><path class="cls-14" d="M964,147.6a1.4,1.4,0,0,1,1.5-1.5h7.9a1.5,1.5,0,0,1,1.5,1.5,1.4,1.4,0,0,1-1.5,1.4h-7.9a1.4,1.4,0,0,1-1.5-1.4"/><path class="cls-14" d="M990.2,147.8c0-3.6.1-5.2.7-7,1.3-3.8,4.2-5.9,8.5-5.9s6.5,1.6,7.8,4a3.6,3.6,0,0,1,.2,1,1.4,1.4,0,0,1-1.5,1.5,1.6,1.6,0,0,1-1.5-.9,5.4,5.4,0,0,0-5-2.6,5.2,5.2,0,0,0-5.3,3.9,18.8,18.8,0,0,0-.6,6,18.8,18.8,0,0,0,.6,6,5.1,5.1,0,0,0,5.3,3.8,5.2,5.2,0,0,0,5.4-3.7,11.4,11.4,0,0,0,.5-3.7.2.2,0,0,0-.2-.2h-3.8a1.6,1.6,0,1,1,0-3.1h5.8a1.4,1.4,0,0,1,1.5,1.5v.7a24.5,24.5,0,0,1-.7,5.6,8.3,8.3,0,0,1-8.5,6c-4.3,0-7.2-2.1-8.5-5.9-.6-1.8-.7-3.5-.7-7"/><path class="cls-14" d="M1025.4,136.8a1.4,1.4,0,0,1,1.5-1.5h12.9a1.5,1.5,0,0,1,1.6,1.5,1.5,1.5,0,0,1-1.6,1.6h-10.9c-.1,0-.2,0-.2.2v7.3c0,.2.1.2.2.2h9.1a1.5,1.5,0,0,1,1.6,1.5,1.5,1.5,0,0,1-1.6,1.6h-9.1a.2.2,0,0,0-.2.2V157c0,.2.1.2.2.2h10.9a1.5,1.5,0,0,1,1.6,1.5,1.5,1.5,0,0,1-1.6,1.6h-12.9a1.4,1.4,0,0,1-1.5-1.5Z"/><path class="cls-14" d="M1057.5,158.3a1.6,1.6,0,0,1-.8-1.4,1.5,1.5,0,0,1,1.6-1.5,1.9,1.9,0,0,1,1,.3,11.6,11.6,0,0,0,6.2,1.9c3.5,0,5.6-1.7,5.6-4.2s-1.2-3.5-5.2-4.1l-1.2-.2c-5.1-.8-7.4-3-7.4-6.9s3.1-7.3,8.1-7.3a13.7,13.7,0,0,1,6.7,1.7,1.6,1.6,0,0,1,.8,1.4,1.4,1.4,0,0,1-1.4,1.5,2,2,0,0,1-1.1-.3,12.3,12.3,0,0,0-5.1-1.2c-3.1,0-4.7,1.7-4.7,4s1.3,3.4,5.2,4l1.2.2c5,.8,7.4,3,7.4,7s-3.1,7.5-9.1,7.5a14.1,14.1,0,0,1-7.8-2.4"/><path class="cls-14" d="M1091,136.8a1.4,1.4,0,0,1,1.5-1.5h12.9a1.5,1.5,0,0,1,1.6,1.5,1.5,1.5,0,0,1-1.6,1.6h-10.9c-.1,0-.2,0-.2.2v7.3c0,.2.1.2.2.2h9.1a1.5,1.5,0,0,1,1.6,1.5,1.5,1.5,0,0,1-1.6,1.6h-9.1l-.2.2V157c0,.2.1.2.2.2h10.9a1.5,1.5,0,0,1,1.6,1.5,1.5,1.5,0,0,1-1.6,1.6h-12.9a1.4,1.4,0,0,1-1.5-1.5Z"/><path class="cls-14" d="M1123.3,136.9a1.6,1.6,0,0,1,1.6-1.8,1.7,1.7,0,0,1,1.7,1.8V157c0,.2.1.2.2.2h10.9a1.5,1.5,0,0,1,1.6,1.5,1.5,1.5,0,0,1-1.6,1.6h-12.8a1.6,1.6,0,0,1-1.6-1.7V136.9Z"/><path class="cls-14" d="M1154.7,136.9a1.6,1.6,0,0,1,1.6-1.8,1.7,1.7,0,0,1,1.7,1.8V157c0,.2,0,.2.2.2H1169a1.6,1.6,0,1,1,0,3.1h-12.7a1.6,1.6,0,0,1-1.6-1.7V136.9Z"/><path class="cls-14" d="M1185.8,158.3a1.6,1.6,0,0,1-.8-1.4,1.5,1.5,0,0,1,1.6-1.5,1.7,1.7,0,0,1,1,.3,11.9,11.9,0,0,0,6.2,1.9c3.6,0,5.6-1.7,5.6-4.2s-1.1-3.5-5.2-4.1l-1.2-.2c-5-.8-7.4-3-7.4-6.9s3.2-7.3,8.2-7.3a13.3,13.3,0,0,1,6.6,1.7,1.7,1.7,0,0,1,.9,1.4,1.4,1.4,0,0,1-1.5,1.5l-1.1-.3a11.9,11.9,0,0,0-5-1.2c-3.2,0-4.8,1.7-4.8,4s1.3,3.4,5.2,4l1.2.2c5.1.8,7.4,3,7.4,7s-3,7.5-9.1,7.5a14.4,14.4,0,0,1-7.8-2.4"/><path class="cls-14" d="M1218.5,147.8c0-3.6.1-5.2.7-7,1.2-3.8,4.1-5.9,8.3-5.9a8.4,8.4,0,0,1,7.4,4.1,3.6,3.6,0,0,1,.2,1,1.4,1.4,0,0,1-1.5,1.5,1.6,1.6,0,0,1-1.4-.9,5.3,5.3,0,0,0-4.7-2.7,5.1,5.1,0,0,0-5.1,3.9,18.8,18.8,0,0,0-.6,6,18.8,18.8,0,0,0,.6,6,5,5,0,0,0,5.1,3.8,5.4,5.4,0,0,0,4.7-2.6,1.6,1.6,0,0,1,1.4-.9,1.4,1.4,0,0,1,1.5,1.5,3.6,3.6,0,0,1-.2,1,8.4,8.4,0,0,1-7.4,4.1c-4.2,0-7.1-2.1-8.3-5.9-.6-1.8-.7-3.5-.7-7"/><path class="cls-14" d="M1251.6,136.9a1.7,1.7,0,0,1,1.7-1.8,1.6,1.6,0,0,1,1.6,1.8v9c0,.2.1.2.2.2H1266c.1,0,.2,0,.2-.2v-9a1.7,1.7,0,0,1,1.7-1.8,1.6,1.6,0,0,1,1.6,1.8v21.8a1.6,1.6,0,0,1-1.6,1.8,1.7,1.7,0,0,1-1.7-1.8v-9.3c0-.2-.1-.2-.2-.2h-10.9c-.1,0-.2,0-.2.2v9.3a1.6,1.6,0,0,1-1.6,1.8,1.7,1.7,0,0,1-1.7-1.8Z"/><path class="cls-14" d="M1299.4,151.5l-4-11.4h-.1l-4.1,11.4Zm-13.9,6.7,7.7-21.2c.4-1.2,1-1.9,2.1-1.9s1.8.7,2.2,1.9l7.6,21.2a1.9,1.9,0,0,1,.2.7,1.5,1.5,0,0,1-1.6,1.6,1.8,1.8,0,0,1-1.6-1.2l-1.7-4.8h-10.2l-1.7,4.8a1.8,1.8,0,0,1-1.6,1.2,1.5,1.5,0,0,1-1.5-1.6,1.7,1.7,0,0,1,.1-.7"/><path class="cls-14" d="M1321.1,136.8a1.4,1.4,0,0,1,1.5-1.5h12.8a1.6,1.6,0,1,1,0,3.1h-10.8c-.1,0-.2,0-.2.2v7.6a.2.2,0,0,0,.2.2h9a1.6,1.6,0,0,1,1.7,1.5,1.5,1.5,0,0,1-1.7,1.5h-9l-.2.2v9.1a1.6,1.6,0,0,1-1.6,1.8,1.7,1.7,0,0,1-1.7-1.8V136.8Z"/><path class="cls-14" d="M1367.8,135.3a1.6,1.6,0,1,1,0,3.1h-5.7c-.2,0-.3,0-.3.2v20.1a1.6,1.6,0,1,1-3.2,0V138.6c0-.2-.1-.2-.3-.2h-5.7a1.6,1.6,0,1,1,0-3.1Z"/></g></svg>
